# xmcd
#
# Track frame offsets:
# 150
# 17715
# 39260
# 58900
# 72724
# 95698
# 126087
# 140659
# 163973
# 179123
# 194818
# 212315
# 229302
#
# Disc length: 3495 seconds
#
# Revision: 0
# Processed by: cddbd v1.5.2PL0 Copyright (c) Steve Scherf et al.
# Submitted via: Audion 3.0.2 (http://www.panic.com/audion/)
#
DISCID=d00da50d
DTITLE=Diane Schuur - In Tribute
DYEAR=1900
DGENRE=
TTITLE0=Them There Eyes
TTITLE1=The Man I Love
TTITLE2=God Bless The Child
TTITLE3=Sweet Georgia Brown
TTITLE4=Guess I'll Hang My Tears Out To Dry
TTITLE5=Round Midnight
TTITLE6=How High The Moon
TTITLE7=Body And Soul
TTITLE8=Black Coffee
TTITLE9=Love For Sale
TTITLE10=Sophisticated Lady
TTITLE11=The Best Is Yet To Come
TTITLE12=Ev'ry Time We Say Goodbye
EXTD=
EXTT0=
EXTT1=
EXTT2=
EXTT3=
EXTT4=
EXTT5=
EXTT6=
EXTT7=
EXTT8=
EXTT9=
EXTT10=
EXTT11=
EXTT12=
PLAYORDER=
